<?xml version="1.0" encoding="utf-8"?>
<!-- Generator: Adobe Illustrator 25.2.0, SVG Export Plug-In . SVG Version: 6.00 Build 0)  -->
<svg version="1.1" id="Layer_1" xmlns="http://www.w3.org/2000/svg" xmlns:xlink="http://www.w3.org/1999/xlink" x="0px" y="0px"
	 width="432px" height="432px" viewBox="0 0 432 432" style="enable-background:new 0 0 432 432;" xml:space="preserve">
<style type="text/css">
	.st0{fill:#EC9E5B;}
	.st1{fill:#EDE3D9;}
	.st2{fill:#ED1C24;}
</style>
<g>
	<path class="st0" d="M348.2,126.2c-0.3-2.2-0.6-4.4-1.1-6.5c-2.1-9.4-7.9-17.6-14.4-24.4c-5.7-6-12.2-11.3-19.2-15.8
		c-0.6-7.6-1.7-15.2-3.2-22.6c-1.5-7.5-3.3-15.2-6.6-22.1c-2.2-4.6-5.9-9.3-11.5-7.5c-2.8,0.9-5.3,2.5-7.6,4.3
		c-3.2,2.4-6.1,5.1-8.8,7.9c-6.1,6.4-11.9,13.7-15.2,22c-4.6-0.2-9.2,0-13.8,0.6c-15.2,2.1-29.4,8.2-40.7,18.1
		c-8.2-3-17.1-4.6-25.8-5c-4-0.2-7.9-0.1-11.9,0.5c-2.8,0.4-5.8,1.1-8.2,2.9c-3.8,2.7-2.3,8.6-1.6,12.5c1.2,6.9,3.3,13.7,5.8,20.2
		c3.1,7.9,6.9,15.7,12.6,22c-2.5,10.5-3.8,21.4-3.2,32.2c-2.1,0.1-4.1,0.4-6.1,1c-1,0.3-1.9,0.6-2.9,1c0-7.4-1.6-14.8-4.5-21.5
		c-3.9-9.1-10.6-16.3-19.4-20.8c-10.9-5.5-24.1-6.9-35.9-3.9c-9.4,2.4-17.9,8.3-24.5,15.2c-7.3,7.6-12.9,17.2-14.7,27.7
		c-2.1,11.7,0.5,23.5,7.2,33.4c1.2,1.7,2.4,3.4,3.8,5c-4.7,5.5-8.3,11.8-10.4,18.8c-2.1,7.3-2.5,15-2.3,22.5
		c0.3,8.8,0.7,17.9,2.7,26.5c1.6,7.3,4.8,14.3,5.5,21.8c0.4,4.5,0.1,9-0.7,13.4c-0.9,5.1-2.2,10.1-2.5,15.3
		c-0.4,7.3,1.6,15.7,7.6,20.5c7,5.7,19.9,6.2,26.4-0.8c5.7-6.2,4.9-14.8,4.2-22.5c-0.9-9.5,1.6-18.3,5.9-26.6c1.8,2.1,3.9,4.2,5,6.7
		c0,0,0,0.1,0,0.2c0,0.2,0,0.4,0,0.6c0,0.6,0,1.2,0,1.8c0,2-0.1,4-0.2,6.1c-0.2,8,0.1,16.4,2.5,24.1c2.6,8.4,8.2,15.6,17.4,17
		c3.9,0.6,8,0.6,11.5-1.6c6.6-4.1,8.8-11.5,8.1-18.9c-1.2-12.5-0.6-25.3,1-37.9c21.8,2.7,44.4,0,65.6-5.2c5.1-1.2,10.1-2.7,15.1-4.3
		c0.1,10,0.9,20,3.5,29.5c3.3,11.9,11.3,26.8,25.9,25c8.2-1,13.7-7,14.5-15.2c0.4-4.4-1.1-8.7-1.8-12.9c-0.7-4.2-1-8.4-0.8-12.6
		c0.3-12.4,5.1-24,10-35.1c3.2-7.3,6.8-14.3,9.5-21.8c3.2-9.3,4.8-19.1,4-28.9c0-0.1,0-0.2,0-0.3c5.6-3.4,10.9-7.4,15.3-12.2
		c4-4.4,7.6-9.5,9.4-15.2c0.1-0.4,0.1-0.8,0.1-1.2c6.9-6.5,12.6-14.1,16.2-23C348.4,146.4,349.5,136.2,348.2,126.2z"/>
	<g>
		<path class="st1" d="M342.3,142.7c0.2-1.5,0.3-1.5,0.4-3c0.2-2.3,0.3-4.6,0.3-6.9c0-2.1-0.2-4.2-0.5-6.3c0-0.1,0-0.1,0-0.2
			c0,0,0-0.1,0-0.2c0-0.2-0.1-0.5-0.1-0.7c-0.1-0.5-0.2-1-0.2-1.5c-0.2-0.9-0.4-1.9-0.6-2.8c-0.1-0.3-0.2-0.5-0.2-0.8
			c-9.4,9.3-22.3,15.1-35.6,15.7c-13.9,0.7-28.3-3.9-41.7,0.2c-18.6,5.8-29.1,26.9-47.5,33.4c-11.7,4.1-26.7,2.5-34.2,12.3
			c0.9,2.8,2.1,5.6,3.5,8.1c6.8,11.7,19.7,17.4,32.7,19.1c18.5,2.4,37.6-1.7,55.1-7.4c17.7-5.8,35.7-13.7,49.6-26.4
			c8.8-8,15.5-17.9,18.2-29.3C341.8,145.1,342.1,143.9,342.3,142.7z"/>
		<path class="st1" d="M297.5,210.7c-5,2.5-10.3,4.6-15.6,6.2c-0.8,6.5-1.6,15.7-1.9,25.3c-0.2,6.6,0.5,14.1,1.3,21.1
			c1.7-4.2,3.5-8.4,5.4-12.6c2.9-6.1,5.7-12.2,7.7-18.7C296.6,225,297.7,217.9,297.5,210.7C297.5,210.7,297.5,210.7,297.5,210.7z"/>
		<path class="st1" d="M239.1,273c0-1.5,0.1-2.9,0.1-4.3c-5.7-1.6-21-2.4-41.2-0.4c-18.5,1.9-31.9,6.1-37.6,8.1
			c-0.4,2.2-0.8,4.4-1.1,6.6c5.4,0.7,10.8,0.9,16.3,0.9C196.9,283.8,218.7,279.9,239.1,273z"/>
		<path class="st1" d="M85.6,326.8c-3.4-0.3-7-1.2-10.3-2.5c0.4,5.5,2.7,10.9,7.5,13.4c0.6,0.3,1.8,0.7,2.9,1
			c1.3,0.3,1.2,0.3,2.6,0.3c1,0,2,0,3-0.1c0.2,0,0.3,0,0.5,0c0,0,0,0,0.1,0c0,0,0,0,0,0c0.4-0.1,0.8-0.1,1.1-0.2
			c0.8-0.2,1.6-0.4,2.4-0.7c0.1-0.1,0.7-0.4,0.8-0.4c0.4-0.2,0.7-0.4,1-0.7c0,0,0.8-0.7,0.9-0.8c0.1-0.1,0.3-0.3,0.4-0.4
			c0.1-0.1,0.1-0.1,0.2-0.2c0,0,0-0.1,0.1-0.1c0.6-0.8,1.2-1.9,1.4-2.5c0.9-2.4,1.2-4.9,1.1-7.5C97.1,326.5,93.3,327.5,85.6,326.8z"
			/>
		<path class="st1" d="M126.1,327.7c0.3,1.1,0.6,2.1,1,3.2c0.4,1.1,0.7,1.8,1.4,3c0.5,0.8,1,1.7,1.6,2.4c0.1,0.1,0.1,0.1,0.1,0.1
			c0,0,0.1,0.1,0.2,0.3c0.1,0.2,0.3,0.3,0.4,0.5c0.3,0.3,0.6,0.7,1,1c0.2,0.2,0.5,0.4,0.7,0.6c0.1,0.1,0.5,0.4,0.7,0.5
			c0.6,0.4,1.3,0.8,2,1.1c0.1,0.1,0.5,0.2,0.7,0.3c0.3,0.1,0.6,0.2,1,0.3c0.8,0.2,1.5,0.4,2.3,0.5c0,0,0,0,0,0c0.1,0,0.1,0,0.2,0
			c0.3,0,0.6,0.1,0.9,0.1c0.7,0,1.4,0.1,2.1,0c0.3,0,0.6,0,0.8,0c0.1,0,0.3,0,0.4,0c0,0,0,0,0,0c0,0,0,0,0,0
			c1.1-0.3,1.6-0.4,2.8-1.3c0.7-0.5,1.6-1.3,2.2-2.2c2.3-3,2.6-6.7,2.5-10.4c-3.6,1.2-7.4,1.7-11,2
			C134.1,330.1,130.3,329.4,126.1,327.7z"/>
		<path class="st1" d="M251.9,316.4c1.2,2.5,2.7,4.9,4.6,7c2.1,2.3,4.7,4.1,7.8,4.6c2.9,0.4,6.3-0.2,8.6-2.1
			c4.2-3.4,3.8-8.5,2.9-13.4c-3.1,1.7-6.8,3-10.5,3.6C260.3,317.1,255.8,317.3,251.9,316.4z"/>
		<path class="st1" d="M193.7,94.1c-5.1-1.4-17.9-4.7-19.8-2.4c-2,2.4,6.3,17.6,9.1,22.5C185.8,107.1,189.3,100.3,193.7,94.1z"/>
		<path class="st1" d="M297.5,70.6c-0.7-6.4-2.7-22.5-6.2-23.6c-3.5-1.2-11.9,11.6-15,16.5C283.6,65.1,290.7,67.5,297.5,70.6z"/>
		<path class="st1" d="M224.9,127.2c1.4,1.7,4.2,2.2,6.3,2.3c3.9,0.2,8.7-0.7,9.1-1.9c1.8-5.7-9.6-9.2-13.9-6.4
			C224,122.6,223.4,125.5,224.9,127.2z"/>
		<path class="st1" d="M284.6,98.8c-5.2,0.6-11.8,10.4-6.8,13.7c1.1,0.7,5.3-1.6,8.3-4.2c1.6-1.4,3.4-3.5,3.4-5.7
			C289.6,100.3,287.3,98.5,284.6,98.8z"/>
	</g>
	<g>
		<path class="st2" d="M316.8,189.7c-5,6-11.4,10.7-18.2,14.5c-19.2,10.7-42.4,14.8-64.2,11.9c-0.6-0.1-1.2-0.2-1.7-0.3
			c8.8-0.3,17.6-1.7,25.9-3.6c11-2.5,21.9-6.1,32.3-10.4c9.3-3.9,18.3-8.4,26.6-14.2c0.7-0.5,1.4-1,2.1-1.5
			C318.7,187.4,317.8,188.6,316.8,189.7z"/>
		<path class="st2" d="M121.3,364.4c-0.4,0-0.9,0.1-1.3,0.2c-3,0.7-6.9,3-8.2,7.4c-1.1,3.6-0.6,9.8,7.7,18.4
			c1.8,1.8,6.8,6.3,20.5,16c11.7-12,15.8-17.3,17.2-19.4c6.6-10,6-16.1,4.3-19.4c-2-4-6.3-5.6-9.4-5.8c-0.4,0-0.9,0-1.3,0
			c-6.2,0.6-11,7.1-12.4,9.1l-1.5,2.3l-1.9-2C133.5,369.4,127.6,363.8,121.3,364.4L121.3,364.4z"/>
	</g>
	<g>
		<path d="M222.2,144.8c-0.9-1.5,0.5-6.1,6.2-7.8c5.7-1.7,14.1,1.8,13.8,5.2s-4,1.5-8.2,2.5C229.2,145.8,224.1,148.1,222.2,144.8z"
			/>
		<path d="M299,116.4c-0.1-1.8-3.7-4.8-9.5-3.2s-10.8,9.2-8.8,11.9c2.1,2.8,4.1-0.9,8.2-2.4C293.7,121.1,299.3,120.2,299,116.4z"/>
		<path d="M348.2,126.2c-0.3-2.2-0.6-4.4-1.1-6.5c-2.1-9.4-7.9-17.6-14.4-24.4c-5.7-6-12.2-11.3-19.2-15.8
			c-0.6-7.6-1.7-15.2-3.2-22.6c-1.5-7.5-3.3-15.2-6.6-22.1c-2.2-4.6-5.9-9.3-11.5-7.5c-2.8,0.9-5.3,2.5-7.6,4.3
			c-3.2,2.4-6.1,5.1-8.8,7.9c-6.1,6.4-11.9,13.7-15.2,22c-4.6-0.2-9.2,0-13.8,0.6c-15.2,2.1-29.4,8.2-40.7,18.1
			c-8.2-3-17.1-4.6-25.8-5c-4-0.2-7.9-0.1-11.9,0.5c-2.8,0.4-5.8,1.1-8.2,2.9c-3.8,2.7-2.3,8.6-1.6,12.5c1.2,6.9,3.3,13.7,5.8,20.2
			c3.1,7.9,6.9,15.7,12.6,22c-2.5,10.5-3.8,21.4-3.2,32.2c-2.1,0.1-4.1,0.4-6.1,1c-1,0.3-1.9,0.6-2.9,1c0-7.4-1.6-14.8-4.5-21.5
			c-3.9-9.1-10.6-16.3-19.4-20.8c-10.9-5.5-24.1-6.9-35.9-3.9c-9.4,2.4-17.9,8.3-24.5,15.2c-7.3,7.6-12.9,17.2-14.7,27.7
			c-2.1,11.7,0.5,23.5,7.2,33.4c1.2,1.7,2.4,3.4,3.8,5c-4.7,5.5-8.3,11.8-10.4,18.8c-2.1,7.3-2.5,15-2.3,22.5
			c0.3,8.8,0.7,17.9,2.7,26.5c1.6,7.3,4.8,14.3,5.5,21.8c0.4,4.5,0.1,9-0.7,13.4c-0.9,5.1-2.2,10.1-2.5,15.3
			c-0.4,7.3,1.6,15.7,7.6,20.5c7,5.7,19.9,6.2,26.4-0.8c5.7-6.2,4.9-14.8,4.2-22.5c-0.9-9.5,1.6-18.3,5.9-26.6
			c1.8,2.1,3.9,4.2,5,6.7c0,0,0,0.1,0,0.2c0,0.2,0,0.4,0,0.6c0,0.6,0,1.2,0,1.8c0,2-0.1,4-0.2,6.1c-0.2,8,0.1,16.4,2.5,24.1
			c2.6,8.4,8.2,15.6,17.4,17c3.9,0.6,8,0.6,11.5-1.6c6.6-4.1,8.8-11.5,8.1-18.9c-1.2-12.5-0.6-25.3,1-37.9c21.8,2.7,44.4,0,65.6-5.2
			c5.1-1.2,10.1-2.7,15.1-4.3c0.1,10,0.9,20,3.5,29.5c3.3,11.9,11.3,26.8,25.9,25c8.2-1,13.7-7,14.5-15.2c0.4-4.4-1.1-8.7-1.8-12.9
			c-0.7-4.2-1-8.4-0.8-12.6c0.3-12.4,5.1-24,10-35.1c3.2-7.3,6.8-14.3,9.5-21.8c3.2-9.3,4.8-19.1,4-28.9c0-0.1,0-0.2,0-0.3
			c5.6-3.4,10.9-7.4,15.3-12.2c4-4.4,7.6-9.5,9.4-15.2c0.1-0.4,0.1-0.8,0.1-1.2c6.9-6.5,12.6-14.1,16.2-23
			C348.4,146.4,349.5,136.2,348.2,126.2z M277.7,45.8c4.3-4.8,9.1-9.5,14.8-12.5c0.7-0.4,0.1-0.1,0.8-0.3c0.4-0.1,0.9-0.3,1.3-0.4
			c-1.1,0.2,1.2-0.4,0,0c0.1,0,0.4,0.1,0.5,0.1c0.1,0.1,0.2,0.1,0.2,0.2c0.2,0.2,0.3,0.2,0.3,0.2c0,0,0.1,0.1,0.2,0.2
			c0.1,0.1,0.7,0.8,0.8,0.8c0.8,1,1.4,2.2,2,3.3c3,6,4.5,12.9,5.8,19.4c1.3,6.3,2.3,12.6,3,19c-12.6-7.2-26.5-12.3-40.8-13.8
			C269.2,55.9,273.4,50.5,277.7,45.8z M163.6,82.9C163.6,82.6,163.8,82.5,163.6,82.9L163.6,82.9z M163.3,83.3c0-0.1,0-0.1,0-0.2
			C163.3,83.1,163.3,83.2,163.3,83.3c0.1-0.1,0.1-0.1,0.1-0.1C163.3,83.3,163.2,83.4,163.3,83.3z M170.9,112.1
			c-2.6-6.1-4.7-12.6-6.1-19.1c-0.6-2.6-1-5-1.2-7.2c-0.1-0.8-0.1-1.6-0.1-2.4c0-0.1,0-0.2,0-0.3c0,0,0,0,0-0.1
			c0.4-0.2,0.7-0.5,1.1-0.6c0.2-0.1,0.8-0.3,1.4-0.5c0.7-0.2,1.4-0.4,2.1-0.5c3.2-0.7,6.5-0.7,9.8-0.7c7.9,0.2,15.9,1.5,23.4,3.8
			c-1.3,1.4-2.6,2.8-3.7,4.2c-8.9,10.9-14.9,23.9-18.8,37.4C175.5,121.9,173,117,170.9,112.1z M118,298.1
			C118.1,298.3,118.1,298.5,118,298.1L118,298.1z M294.5,232c-2,6.5-4.9,12.6-7.7,18.7c-2.3,4.9-4.4,10-6.5,15.1
			c-2.3,5.5-4.2,11.2-5.3,17c-1.4,7.9-1.4,15.8-0.2,23.7c0.9,6.3,4.2,14.6-1.8,19.4c-2.3,1.9-5.7,2.5-8.6,2.1
			c-3.1-0.4-5.7-2.2-7.8-4.6c-3.5-3.8-5.6-8.7-7.1-13.3c-5-15.3-4.3-32.4-3.6-48.2c0.2-4.1-6.2-4.1-6.4,0c-0.2,3.7-0.3,7.4-0.4,11.1
			c-20.3,6.9-42.1,10.8-63.6,10.9c-5.4,0-10.9-0.2-16.3-0.9c0.8-4.9,1.7-9.8,2.7-14.7c0.9-4-5.3-5.7-6.1-1.7
			c-3.7,17.3-5.9,35.1-5.3,52.8c0.2,6.1,2.3,13.4-1.8,18.7c-0.7,0.9-1.6,1.7-2.2,2.2c-1.2,0.9-1.6,1-2.8,1.3c0,0,0,0,0,0
			c0,0,0,0,0,0c-0.1,0-0.3,0-0.4,0c-0.3,0-0.6,0-0.8,0c-0.7,0-1.4,0-2.1,0c-0.3,0-0.6,0-0.9-0.1c-0.1,0-0.2,0-0.2,0c0,0,0,0,0,0
			c-0.8-0.1-1.5-0.3-2.3-0.5c-0.3-0.1-0.6-0.2-1-0.3c-0.1,0-0.5-0.2-0.7-0.3c-0.7-0.3-1.4-0.7-2-1.1c-0.1-0.1-0.6-0.4-0.7-0.5
			c-0.2-0.2-0.5-0.4-0.7-0.6c-0.3-0.3-0.7-0.6-1-1c-0.1-0.2-0.3-0.3-0.4-0.5c-0.1-0.1-0.2-0.2-0.2-0.3c0,0,0,0-0.1-0.1
			c-0.6-0.8-1.1-1.6-1.6-2.4c-0.7-1.2-1-1.9-1.4-3c-2.4-6.5-2.9-13.6-2.9-20.4c0-3.8,0.3-7.6,0.2-11.4c-0.1-3.6-1.7-6-4.1-8.7
			c-4.9-5.6-8.9-12-11.4-18.9c-3.1-8.9-3.7-18.4-2.2-27.7c0.3-1.7-0.4-3.4-2.2-3.9c-1.5-0.4-3.6,0.5-3.9,2.2
			c-1.5,9.2-1.4,18.6,1.1,27.7c1.6,5.6,4,10.9,7.1,15.8c-0.1,0.1-0.1,0.2-0.2,0.2c-4.3,7.6-7.5,15.8-8.1,24.6
			c-0.5,7.4,2.2,15.2-0.4,22.4c-0.2,0.6-0.8,1.7-1.4,2.5c0,0.1-0.1,0.1-0.1,0.1c0,0-0.1,0.1-0.2,0.2c-0.1,0.1-0.3,0.3-0.4,0.4
			c-0.2,0.2-1,0.8-0.9,0.8c-0.3,0.2-0.7,0.5-1,0.7c-0.1,0.1-0.8,0.4-0.8,0.4c-0.8,0.3-1.6,0.5-2.4,0.7c-0.4,0.1-0.8,0.1-1.1,0.2
			c0,0,0,0,0,0c0,0,0,0-0.1,0c-0.2,0-0.3,0-0.5,0c-1,0.1-2,0.1-3,0.1c-1.4-0.1-1.3,0-2.6-0.3c-1.1-0.2-2.3-0.7-2.9-1
			c-5.3-2.7-7.6-9-7.6-15.1c0-4.6,1.1-9.1,2-13.5c0.9-4.5,1.6-9.1,1.5-13.7c-0.1-7.5-2.4-14.3-4.5-21.4c-2.3-7.9-3-16-3.6-24.2
			c-0.5-7.9-0.7-15.9,1-23.7c1.6-7.4,5-14,9.9-19.6c2.4,0,4.5-3.2,2.3-5.5c-7.4-7.8-12.6-17.6-12.6-28.6c0-9.3,3.5-18.2,8.9-25.8
			c5.1-7.2,12.1-13.2,20.1-17c8.6-4.1,19-4.6,28.2-2.4c5.3,1.3,10.3,3.4,14.8,6.6c3.4,2.4,6,5.3,8.1,8.5c4,6.2,6.3,13.6,6.9,20.9
			c0.6,7.7-0.4,15.6-4,22.5c-3.6,6.9-10.1,12.9-17.7,15c-7.5,2.1-17.8,1-23.6-4.8c-6.2-6.3-5.8-17.3-0.7-24.1c1.2-1.7,2.8-3,4.5-4.1
			c3.5-2.1,0.3-7.6-3.2-5.5c-9.5,5.8-13.6,18.1-10.6,28.6c3.2,11.2,13.7,16.5,24.6,17.1c9.9,0.5,19.3-3.5,26.1-10.6
			c6-6.3,9.4-14.5,10.5-23.1c0.2-0.1,0.4-0.2,0.7-0.3c0.1,0,0.2-0.1,0.3-0.1c0.2-0.1,0.5-0.2,0.7-0.3c1.1-0.4,2.2-0.9,3.4-1.2
			c0.5-0.2,1.1-0.3,1.6-0.4c0.3-0.1,0.6-0.1,0.9-0.2c0.2,0,1.2-0.3,0.4-0.1c0.6-0.2,1.3-0.2,2-0.2c0.5,3.7,1.2,7.4,2.2,11
			c1.9,7,5.5,13.5,10.6,18.6c5.1,5.1,11.5,8.7,18.2,11c2.1,0.7,4.2,1.3,6.3,1.8c4.9,3.9,11.9,5.5,17.9,6.5
			c10.7,1.9,21.7,2.1,32.4,0.7c12.3-1.6,24.4-5.1,35.5-10.6c0,0,0,0,0,0C297.7,217.9,296.6,225,294.5,232z M316.8,189.7
			c-5,6-11.4,10.7-18.2,14.5c-19.2,10.7-42.4,14.8-64.2,11.9c-0.6-0.1-1.2-0.2-1.7-0.3c8.8-0.3,17.6-1.7,25.9-3.6
			c11-2.5,21.9-6.1,32.3-10.4c9.3-3.9,18.3-8.4,26.6-14.2c0.7-0.5,1.4-1,2.1-1.5C318.7,187.4,317.8,188.6,316.8,189.7z M342.7,139.7
			c-0.1,1.5-0.2,1.5-0.4,3c-0.2,1.2-0.4,2.4-0.7,3.6c-2.7,11.4-9.4,21.2-18.2,29.3c-13.9,12.7-31.9,20.6-49.6,26.4
			c-17.5,5.7-36.6,9.8-55.1,7.4c-13-1.7-25.9-7.4-32.7-19.1c-4.6-8-6.2-17.7-6.6-26.7c-0.4-9.5,0.8-18.9,2.9-28.2
			c2.7-11.5,6.7-22.8,12.8-33c8.3-13.8,20.4-24.9,35.7-30.4c10.4-3.7,21.3-5.4,32.3-4.6c11.1,0.8,21.9,4,31.9,8.7
			c8.1,3.8,16,8.3,23,13.9c7,5.6,13.7,12,18.5,19.7c2.3,3.7,4,7.5,5,11.7c0.2,0.9,0.4,1.9,0.6,2.8c0.1,0.5,0.2,1,0.2,1.5
			c0,0.2,0.1,0.5,0.1,0.7c0,0.1,0,0.2,0,0.2c0,0,0,0.1,0,0.2c0.3,2.1,0.4,4.2,0.5,6.3C343,135.2,342.9,137.5,342.7,139.7z"/>
		<path d="M300,145.9c-0.3-1.5-2.1-2.4-3.6-2c-1.6,0.4-2.3,2-2,3.6c0,0.1,0.1,0.3,0.1,0.4c0,0.3,0,0.5,0,0.8c0,0.6,0,1.2-0.1,1.8
			c0,0.1-0.1,0.6-0.1,0.7c-0.1,0.3-0.1,0.6-0.2,0.9c-0.2,0.6-0.4,1.5-0.6,1.9c-0.9,2.3-2.6,4.3-4.8,5.5c-0.1,0.1-0.3,0.1-0.4,0.2
			c0,0,0,0,0,0c-0.4,0.1-0.8,0.3-1.2,0.4c-0.4,0.1-0.9,0.2-1.3,0.3c-0.2,0-0.4,0.1-0.7,0.1c-0.1,0-0.2,0-0.3,0.1c0,0,0,0,0,0
			c0,0,0,0,0,0c-1.1,0.1-2.1,0.2-3.2,0.1c-0.2,0-0.4,0-0.6,0c-0.1,0-0.3,0-0.4-0.1c-0.6-0.1-1.1-0.3-1.7-0.4c-0.1,0-0.2-0.1-0.3-0.1
			c0,0,0,0-0.1,0c0,0,0,0,0,0c-0.3-0.1-0.5-0.3-0.8-0.4c-0.2-0.1-0.4-0.2-0.6-0.4c0,0-0.4-0.3-0.5-0.4c-0.7-0.7-1.3-1.7-1.6-2.8
			c-0.1-0.3-0.2-0.6-0.4-0.8c2.7-3.1,4-8.9,3.4-11.6c-0.7-3.6-4.3-4-10.7-1.7c-5.5,2-10.5,5.3-10.4,8.2c0.1,3.7,7,7,12,7.2
			c0,0.2,0,0.4,0,0.6c0,0.3,0,0.6,0,0.9c0,0.1,0,0.5,0,0.6c-0.1,0.6-0.2,1.1-0.4,1.7c-0.1,0.5-0.5,1.3-0.5,1.5
			c-1.1,2.4-2.7,4.3-5,5.6c-5,3-12.4,2.3-16.4-2.3c-1-1.2-3-1.1-4.1,0c-1.2,1.2-1,2.9,0,4.1c5.7,6.4,16.2,7.5,23.4,3.2
			c3.6-2.2,6.3-5.5,7.7-9.4c2.7,2,6.3,2.9,10,2.7c2.5-0.2,5-0.7,7.3-1.7c3.1-1.4,5.6-4.3,7.1-7.3C300,153.8,300.7,149.8,300,145.9z"
			/>
		<path d="M96.2,403.5c0,0-9.8,3-11.8-2.7c-2.2-5.4,1.4-40.7,1.4-40.7s0-1.8,2.7-1.9c2.5-0.1,6.5,0.1,6.5,0.1L96.2,403.5z"/>
		<path d="M203.8,392.6c-0.7,5.6-5,10.5-11.4,11.5c-10.4,1.5-18.4-7.1-19.3-17.6c1.9-0.9,9.4-4.5,10.7-0.4c0.3,1.1,1.1,3,2,4.5
			c3.7,5.8,8.5,1.9,4.8-2.9c-3.2-4.5-9.4-6.2-13.6-10.4c-1.2-1.2-2.1-2.5-2.9-4c-2.9-6.1,0.4-11.3,5.5-13.8c6.5-3,16.3-0.9,20.6,5.3
			c0.8,1.2,1.4,2.3,1.2,3.8c-0.6,1.9-4,3.8-6,4.3c-1-2.6-4-4.8-6.6-5.8c-6.5-2.5-6.8,2.6-1.2,5.6c2.2,1.4,4.5,2.5,6.8,3.9
			C199.5,380,204.6,385.6,203.8,392.6z"/>
		<path d="M239.8,403.1c0,0-2.3,0.9-5.2,1c-5.5,0.4-7.4-2.9-7.6-8.6c-0.1-2.4,0.1-5,0.2-6.9c-2.7,0.4-6.4,0.2-8.8,0.1
			c0.1,5.2,0.2,10.2,0.2,15.3c0,0-2.4,0.7-5.1,0.7c-2.7,0-5.6-0.6-6.6-3.4c-1.2-3.3,0.3-37.7,0.8-41c0,0-0.1-1.7,2.5-1.9
			c2.7-0.2,6.5-0.2,6.5-0.2c0.6,7.6,0.9,15.1,1.2,22.5l9.9-1.9c0.7-6.8,1.1-10.6,2.3-17.9c0.2-1.5,1.2-2.8,3.2-2.8
			c2.7,0.1,6.5,0.6,6.5,0.6C239,373.5,238.9,388.4,239.8,403.1z"/>
		<path d="M255,403.5c0,0-9.8,3-11.8-2.7c-2.2-5.4,1.4-40.7,1.4-40.7s0-1.8,2.7-1.9c2.5-0.1,6.5,0.1,6.5,0.1L255,403.5z"/>
		<path d="M270.1,404.8c-4.2,0.2-9.1,0.1-10.4-2.9c-1.2-2.7-1.6-13.3-1.5-23c0.3-9.7,0.7-18.9,0.7-18.9s-0.1-1.8,2.6-1.9
			c3.6-0.2,7.8-0.2,11.9,0.4c10.2,1.7,21.1,12,10.5,21.7C300.4,389.9,284.1,404.1,270.1,404.8z M269,375.6c6.2-0.2,14-7.2-0.4-8.4
			C268.8,369.8,268.9,373.2,269,375.6z M270.2,386.2c-0.1,0-0.1,0-0.2,0c0.1,2.5,0.4,5,0.7,7.5C280.7,394.2,281.5,385.2,270.2,386.2
			z"/>
		<path d="M329,403c0,0-2.2,1.1-4.9,1.5c-2.7,0.4-5.6,0.1-7.1-2.4c-0.5-1.1-1.1-3.8-1.7-7.4c-3.2,0-6.2-0.4-9.6-0.8
			c-0.6,3.4-1.1,6.8-1.4,10.2c0,0-2.5,0.4-5.1,0.1c-2.6-0.4-5.5-1.5-6.2-4.6c-0.3-3.6,7-41.6,15.3-41.6c1.6,0,8.1,0.2,9.2,1.7
			C321.3,365.1,326.8,388.1,329,403z M313.9,382c0-0.2,0-0.4-0.1-0.6c-0.6-3.9-1.1-7.4-1.9-10.1c-1.4,3.7-2.5,7.6-3.6,11.5
			C310.2,382.4,312,382.2,313.9,382z"/>
	</g>
</g>
</svg>
